<svg width="24" height="24" viewBox="0 0 24 24" fill="none" xmlns="http://www.w3.org/2000/svg">
<path d="M6.38225 21.1005L6.07016 21.7825V21.7825L6.38225 21.1005ZM3.81157 18.2604L3.10931 18.5237V18.5237L3.81157 18.2604ZM20.1884 18.2604L20.8907 18.5237V18.5237L20.1884 18.2604ZM17.6177 21.1005L17.9298 21.7825V21.7825L17.6177 21.1005ZM3.45 10.9803L4.19735 11.0433L4.23093 10.6447L3.91862 10.3948L3.45 10.9803ZM19.125 6.47189V5.72189H19.125L19.125 6.47189ZM12.7294 5.3589L13.2736 5.87495V5.87495L12.7294 5.3589ZM14.7446 3.23361L15.2889 3.74966V3.74966L14.7446 3.23361ZM18.1034 3.23361L17.5592 3.74966V3.74966L18.1034 3.23361ZM18.3493 6.47188L18.3494 7.22188L18.744 7.22185L18.9675 6.89654L18.3493 6.47188ZM11.4196 5.35891L10.8754 5.87497V5.87497L11.4196 5.35891ZM9.40439 3.23362L8.86016 3.74967V3.74967L9.40439 3.23362ZM6.04563 3.23362L6.58987 3.74967V3.74967L6.04563 3.23362ZM12 20.4981H12.75V20.4981H12ZM3.41915 10.9556L2.94382 11.5358H2.94382L3.41915 10.9556ZM20.4886 11.0275L20.0422 10.4249L20.4886 11.0275ZM10.575 21.5V20.75C9.45706 20.75 8.66009 20.7495 8.03239 20.7022C7.41305 20.6555 7.01713 20.5663 6.69435 20.4185L6.38225 21.1005L6.07016 21.7825C6.62029 22.0343 7.21413 22.1448 7.91963 22.1979C8.61677 22.2505 9.47972 22.25 10.575 22.25V21.5ZM3.45003 13.6281H2.70003C2.70003 14.8415 2.69969 15.7855 2.74664 16.5458C2.79392 17.3116 2.89124 17.942 3.10931 18.5237L3.81157 18.2604L4.51384 17.9971C4.37033 17.6143 4.28688 17.1513 4.24379 16.4533C4.20036 15.75 4.20003 14.8601 4.20003 13.6281H3.45003ZM6.38225 21.1005L6.69435 20.4185C5.72478 19.9748 4.93194 19.1123 4.51384 17.9971L3.81157 18.2604L3.10931 18.5237C3.65539 19.9802 4.71196 21.1609 6.07016 21.7825L6.38225 21.1005ZM20.55 13.6281H19.8C19.8 14.86 19.7997 15.75 19.7562 16.4533C19.7131 17.1513 19.6297 17.6143 19.4862 17.9971L20.1884 18.2604L20.8907 18.5237C21.1088 17.942 21.2061 17.3116 21.2534 16.5458C21.3003 15.7854 21.3 14.8414 21.3 13.6281H20.55ZM13.425 21.5V22.25C14.5203 22.25 15.3832 22.2505 16.0804 22.1979C16.7859 22.1448 17.3797 22.0343 17.9298 21.7825L17.6177 21.1005L17.3057 20.4185C16.9829 20.5663 16.5869 20.6555 15.9676 20.7022C15.3399 20.7495 14.5429 20.75 13.425 20.75V21.5ZM20.1884 18.2604L19.4862 17.9971C19.0681 19.1123 18.2752 19.9748 17.3057 20.4185L17.6177 21.1005L17.9298 21.7825C19.288 21.1609 20.3446 19.9802 20.8907 18.5237L20.1884 18.2604ZM3.45003 13.6281H4.20003C4.20003 12.1572 4.13515 11.7816 4.19735 11.0433L3.45 10.9803L2.70265 10.9174C2.63425 11.7292 2.70003 12.3348 2.70003 13.6281H3.45003ZM19.125 6.47189V7.22189C19.9854 7.22189 20.75 7.96942 20.75 8.97657H21.5H22.25C22.25 7.21713 20.888 5.72189 19.125 5.72189V6.47189ZM4.875 6.47189V5.72189C3.11204 5.72189 1.75 7.21713 1.75 8.97657H2.5H3.25C3.25 7.96942 4.01461 7.22189 4.875 7.22189V6.47189ZM12.7294 5.3589L13.2736 5.87495L15.2889 3.74966L14.7446 3.23361L14.2004 2.71755L12.1851 4.84285L12.7294 5.3589ZM14.7446 3.23361L15.2889 3.74966C15.9206 3.08345 16.9274 3.08345 17.5592 3.74966L18.1034 3.23361L18.6476 2.71755C17.4243 1.42748 15.4237 1.42748 14.2004 2.71755L14.7446 3.23361ZM12.7294 5.3589L12.1851 4.84285C11.8847 5.15973 11.4319 5.6697 11.2736 6.28507L12 6.47191L12.7264 6.65874C12.7778 6.45876 12.967 6.19828 13.2736 5.87495L12.7294 5.3589ZM18.1034 3.23361L17.5592 3.74966C18.1456 4.36813 18.2089 5.35173 17.7311 6.04721L18.3493 6.47188L18.9675 6.89654C19.8351 5.63362 19.7344 3.86368 18.6476 2.71755L18.1034 3.23361ZM11.4196 5.35891L11.9639 4.84286L9.94862 2.71757L9.40439 3.23362L8.86016 3.74967L10.8754 5.87497L11.4196 5.35891ZM9.40439 3.23362L9.94862 2.71757C8.72535 1.4275 6.72467 1.4275 5.5014 2.71757L6.04563 3.23362L6.58987 3.74967C7.22158 3.08346 8.22844 3.08346 8.86016 3.74967L9.40439 3.23362ZM11.4196 5.35891L10.8754 5.87497C11.0651 6.07497 11.1895 6.33147 11.2736 6.65874L12 6.47191L12.7264 6.28507C12.6008 5.79698 12.3813 5.28307 11.9639 4.84286L11.4196 5.35891ZM6.04563 3.23362L5.5014 2.71757C4.41462 3.86369 4.31395 5.63363 5.18152 6.89656L5.79971 6.47189L6.4179 6.04722C5.94014 5.35175 6.00342 4.36814 6.58987 3.74967L6.04563 3.23362ZM12 6.47191H11.25L11.25 20.4981H12H12.75L12.75 6.47191H12ZM5.79971 6.47189L5.79971 7.22189L12 7.22191L12 6.47191L12 5.72191L5.79971 5.72189L5.79971 6.47189ZM4.875 11.4813V10.7313C4.50962 10.7313 4.17038 10.6016 3.89448 10.3755L3.41915 10.9556L2.94382 11.5358C3.47209 11.9686 4.14317 12.2313 4.875 12.2313V11.4813ZM3.41915 10.9556L3.89448 10.3755C3.50829 10.0591 3.25 9.55555 3.25 8.97657H2.5H1.75C1.75 10.0071 2.21145 10.9357 2.94382 11.5358L3.41915 10.9556ZM3.45 10.9803L3.91862 10.3948L3.88776 10.3701L3.41915 10.9556L2.95053 11.5412L2.98138 11.5659L3.45 10.9803ZM13.425 21.5V20.75H12V21.5V22.25H13.425V21.5ZM12 21.5V20.75H10.575V21.5V22.25H12V21.5ZM12 20.4981H11.25L11.25 21.5L12 21.5H12.75L12.75 20.4981H12ZM19.125 11.4813V10.7313H12V11.4813V12.2313H19.125V11.4813ZM12 11.4813V10.7313H4.875V11.4813V12.2313H12V11.4813ZM21.5 8.97657H20.75C20.75 9.58695 20.463 10.1131 20.0422 10.4249L20.4886 11.0275L20.9351 11.6302C21.7375 11.0357 22.25 10.0625 22.25 8.97657H21.5ZM20.4886 11.0275L20.0422 10.4249C19.7786 10.6201 19.4634 10.7313 19.125 10.7313V11.4813V12.2313C19.8015 12.2313 20.4268 12.0067 20.9351 11.6302L20.4886 11.0275ZM20.55 13.6281H21.3C21.3 12.2804 21.3004 11.7505 21.2361 10.9662L20.4886 11.0275L19.7411 11.0888C19.7996 11.8011 19.8 12.2681 19.8 13.6281H20.55ZM12 6.47191L12 7.22191L18.1034 7.22189L18.1034 6.47189L18.1034 5.72189L12 5.72191L12 6.47191ZM18.1034 6.47189L18.1034 7.22189L18.3494 7.22188L18.3493 6.47188L18.3493 5.72188L18.1033 5.72189L18.1034 6.47189ZM18.1034 6.47189L18.1034 7.22189L19.125 7.22189L19.125 6.47189L19.125 5.72189L18.1034 5.72189L18.1034 6.47189ZM5.79971 6.47189V5.72189H4.875V6.47189V7.22189H5.79971V6.47189ZM4.875 6.47189L4.875 7.22189L8.4375 7.2219L8.4375 6.4719L8.4375 5.7219L4.875 5.72189L4.875 6.47189ZM8.4375 6.4719L8.4375 7.2219L12 7.22191L12 6.47191L12 5.72191L8.4375 5.7219L8.4375 6.4719ZM5.79971 6.47189L5.79971 7.22189L8.4375 7.2219L8.4375 6.4719L8.4375 5.7219L5.79971 5.72189L5.79971 6.47189ZM12 6.47191L12 7.22191L18.3493 7.22188L18.3493 6.47188L18.3493 5.72188L12 5.72191L12 6.47191Z" fill="#5E5F60"/>
</svg>
