<svg width="32" height="32" viewBox="0 0 32 32" fill="none" xmlns="http://www.w3.org/2000/svg">
<rect width="32" height="32" rx="16" fill="#EBEBEB"/>
<g clip-path="url(#clip0_2292_8135)">
<path d="M8 8.00098H24V22.001C24 23.1055 23.1046 24.001 22 24.001H10C8.89543 24.001 8 23.1055 8 22.001V8.00098Z" stroke="#292929" stroke-linecap="round" stroke-linejoin="round"/>
<rect x="16" y="20" width="0.01" height="0.01" stroke="#292929" stroke-width="1.5" stroke-linejoin="round"/>
<path d="M14.5858 11.5856C14.9754 11.196 15.4858 11.0007 15.9965 10.9998C16.5095 10.9989 17.0228 11.1942 17.4142 11.5856C17.8047 11.9761 18 12.488 18 12.9998C18 13.5117 17.8047 14.0235 17.4142 14.414C17.0228 14.8054 16.5095 15.0007 15.9965 14.9998L16 15.9998" stroke="#292929" stroke-linecap="round" stroke-linejoin="round"/>
</g>
<defs>
<clipPath id="clip0_2292_8135">
<rect width="24" height="24" fill="white" transform="translate(4 4)"/>
</clipPath>
</defs>
</svg>
