<svg width="74" height="27" viewBox="0 0 74 27" fill="none" xmlns="http://www.w3.org/2000/svg">
<path d="M36.3659 15.3999C36.2926 15.3999 36.2559 15.3632 36.2559 15.2899L36.2999 0.175902C36.2999 0.117235 36.3292 0.0879015 36.3879 0.0879015L40.5019 0.0659018C41.3086 0.0512353 42.0419 0.241902 42.7019 0.637902C43.3766 1.0339 43.9119 1.56923 44.3079 2.2439C44.7039 2.9039 44.9019 3.63724 44.9019 4.4439V10.7579C44.9019 11.6086 44.6966 12.3859 44.2859 13.0899C43.8752 13.7792 43.3252 14.3292 42.6359 14.7399C41.9466 15.1506 41.1692 15.3632 40.3039 15.3779L36.3659 15.3999ZM38.9399 12.6939H40.3039C40.8466 12.6939 41.3012 12.5032 41.6679 12.1219C42.0492 11.7406 42.2399 11.2859 42.2399 10.7579V4.4219C42.2399 3.95257 42.0639 3.54924 41.7119 3.2119C41.3746 2.8599 40.9712 2.69124 40.5019 2.7059L38.9619 2.7279L38.9399 12.6939ZM46.5009 15.3999C46.4422 15.3999 46.4129 15.3632 46.4129 15.2899L46.4349 0.175902C46.4349 0.117235 46.4642 0.0879015 46.5229 0.0879015H53.5849C53.6435 0.0879015 53.6729 0.124568 53.6729 0.197901V2.6619C53.6729 2.72057 53.6435 2.7499 53.5849 2.7499H49.0749V6.1819H53.5849C53.6435 6.1819 53.6729 6.21124 53.6729 6.2699L53.6949 8.7559C53.6949 8.81457 53.6655 8.8439 53.6069 8.8439H49.0749V12.6939H53.6069C53.6655 12.6939 53.6949 12.7306 53.6949 12.8039V15.3119C53.6949 15.3706 53.6655 15.3999 53.6069 15.3999H46.5009ZM55.5191 15.3999C55.4605 15.3999 55.4311 15.3632 55.4311 15.2899L55.4531 0.175902C55.4531 0.117235 55.4825 0.0879015 55.5411 0.0879015H62.6031C62.6618 0.0879015 62.6911 0.124568 62.6911 0.197901V2.6619C62.6911 2.72057 62.6618 2.7499 62.6031 2.7499H58.0931V6.1819H62.6031C62.6618 6.1819 62.6911 6.21124 62.6911 6.2699L62.7131 8.7559C62.7131 8.81457 62.6838 8.8439 62.6251 8.8439H58.0931V12.6939H62.6251C62.6838 12.6939 62.7131 12.7306 62.7131 12.8039V15.3119C62.7131 15.3706 62.6838 15.3999 62.6251 15.3999H55.5191ZM64.5594 15.3999C64.4861 15.3999 64.4494 15.3632 64.4494 15.2899L64.4934 0.175902C64.4934 0.117235 64.5227 0.0879015 64.5814 0.0879015H68.8054C70.1547 0.0879015 71.2181 0.498568 71.9954 1.3199C72.7874 2.14123 73.1834 3.2559 73.1834 4.6639C73.1834 5.70524 72.9781 6.60724 72.5674 7.3699C72.1567 8.13257 71.6214 8.71924 70.9614 9.1299C70.3014 9.54057 69.5827 9.7459 68.8054 9.7459H67.1334V15.2899C67.1334 15.3632 67.0967 15.3999 67.0234 15.3999H64.5594ZM67.1334 7.0839H68.8054C69.2747 7.0839 69.6781 6.8639 70.0154 6.4239C70.3674 5.96924 70.5434 5.38257 70.5434 4.6639C70.5434 4.0919 70.3894 3.62257 70.0814 3.2559C69.7734 2.88924 69.3481 2.7059 68.8054 2.7059L67.1334 2.7279V7.0839Z" fill="#009738"/>
<path d="M38.0551 20.4C38.1085 20.4 38.1351 20.4267 38.1351 20.48V20.816C38.1351 20.8693 38.1085 20.896 38.0551 20.896H36.9991C36.9778 20.896 36.9671 20.9067 36.9671 20.928V25.92C36.9671 25.9733 36.9405 26 36.8871 26H36.4791C36.4258 26 36.3991 25.9733 36.3991 25.92V20.928C36.3991 20.9067 36.3885 20.896 36.3671 20.896H35.3751C35.3218 20.896 35.2951 20.8693 35.2951 20.816V20.48C35.2951 20.4267 35.3218 20.4 35.3751 20.4H38.0551ZM41.2779 20.816C41.2779 20.8693 41.2513 20.896 41.1979 20.896H39.3419C39.3206 20.896 39.3099 20.9067 39.3099 20.928V22.912C39.3099 22.9333 39.3206 22.944 39.3419 22.944H40.5099C40.5633 22.944 40.5899 22.9707 40.5899 23.024V23.368C40.5899 23.4213 40.5633 23.448 40.5099 23.448H39.3419C39.3206 23.448 39.3099 23.4587 39.3099 23.48V25.472C39.3099 25.4933 39.3206 25.504 39.3419 25.504H41.1979C41.2513 25.504 41.2779 25.5307 41.2779 25.584V25.92C41.2779 25.9733 41.2513 26 41.1979 26H38.8219C38.7686 26 38.7419 25.9733 38.7419 25.92V20.48C38.7419 20.4267 38.7686 20.4 38.8219 20.4H41.1979C41.2513 20.4 41.2779 20.4267 41.2779 20.48V20.816ZM43.1556 26.064C42.745 26.064 42.4143 25.9387 42.1636 25.688C41.9183 25.4373 41.7956 25.1013 41.7956 24.68V21.712C41.7956 21.296 41.9183 20.9627 42.1636 20.712C42.4143 20.4613 42.745 20.336 43.1556 20.336C43.5716 20.336 43.9023 20.4613 44.1476 20.712C44.3983 20.9573 44.5236 21.2907 44.5236 21.712V21.848C44.5236 21.9013 44.497 21.928 44.4436 21.928L44.0276 21.952C43.9743 21.952 43.9476 21.9253 43.9476 21.872V21.672C43.9476 21.4213 43.8756 21.2187 43.7316 21.064C43.5876 20.9093 43.3956 20.832 43.1556 20.832C42.921 20.832 42.729 20.9093 42.5796 21.064C42.4356 21.2187 42.3636 21.4213 42.3636 21.672V24.728C42.3636 24.9787 42.4356 25.1813 42.5796 25.336C42.729 25.4907 42.921 25.568 43.1556 25.568C43.3956 25.568 43.5876 25.4907 43.7316 25.336C43.8756 25.1813 43.9476 24.9787 43.9476 24.728V24.528C43.9476 24.4747 43.9743 24.448 44.0276 24.448L44.4436 24.472C44.497 24.472 44.5236 24.4987 44.5236 24.552V24.68C44.5236 25.1013 44.3983 25.4373 44.1476 25.688C43.897 25.9387 43.5663 26.064 43.1556 26.064ZM47.3179 20.48C47.3179 20.4267 47.3446 20.4 47.3979 20.4H47.8059C47.8593 20.4 47.8859 20.4267 47.8859 20.48V25.92C47.8859 25.9733 47.8593 26 47.8059 26H47.3979C47.3446 26 47.3179 25.9733 47.3179 25.92V23.48C47.3179 23.4587 47.3073 23.448 47.2859 23.448H45.8619C45.8406 23.448 45.8299 23.4587 45.8299 23.48V25.92C45.8299 25.9733 45.8033 26 45.7499 26H45.3419C45.2886 26 45.2619 25.9733 45.2619 25.92V20.48C45.2619 20.4267 45.2886 20.4 45.3419 20.4H45.7499C45.8033 20.4 45.8299 20.4267 45.8299 20.48V22.912C45.8299 22.9333 45.8406 22.944 45.8619 22.944H47.2859C47.3073 22.944 47.3179 22.9333 47.3179 22.912V20.48ZM50.9807 20.48C50.9807 20.4267 51.0074 20.4 51.0607 20.4H51.4607C51.514 20.4 51.5407 20.4267 51.5407 20.48V25.92C51.5407 25.9733 51.514 26 51.4607 26H50.9887C50.946 26 50.9167 25.9787 50.9007 25.936L49.3407 21.8C49.3354 21.784 49.3274 21.7787 49.3167 21.784C49.306 21.784 49.3007 21.792 49.3007 21.808L49.3087 25.92C49.3087 25.9733 49.282 26 49.2287 26H48.8207C48.7674 26 48.7407 25.9733 48.7407 25.92V20.48C48.7407 20.4267 48.7674 20.4 48.8207 20.4H49.2847C49.3274 20.4 49.3567 20.4213 49.3727 20.464L50.9407 24.608C50.946 24.624 50.954 24.632 50.9647 24.632C50.9754 24.6267 50.9807 24.616 50.9807 24.6V20.48ZM53.686 26.064C53.2753 26.064 52.942 25.936 52.686 25.68C52.4353 25.424 52.31 25.0853 52.31 24.664V21.736C52.31 21.3147 52.4353 20.976 52.686 20.72C52.942 20.464 53.2753 20.336 53.686 20.336C54.102 20.336 54.438 20.464 54.694 20.72C54.95 20.976 55.078 21.3147 55.078 21.736V24.664C55.078 25.08 54.95 25.4187 54.694 25.68C54.438 25.936 54.102 26.064 53.686 26.064ZM53.686 25.568C53.9313 25.568 54.1287 25.488 54.278 25.328C54.4327 25.1627 54.51 24.952 54.51 24.696V21.712C54.51 21.4507 54.4327 21.24 54.278 21.08C54.1287 20.9147 53.9313 20.832 53.686 20.832C53.446 20.832 53.2513 20.9147 53.102 21.08C52.9527 21.24 52.878 21.4507 52.878 21.712V24.696C52.878 24.952 52.9527 25.1627 53.102 25.328C53.2513 25.488 53.446 25.568 53.686 25.568ZM55.9344 26C55.8811 26 55.8544 25.9733 55.8544 25.92V20.48C55.8544 20.4267 55.8811 20.4 55.9344 20.4H56.3424C56.3958 20.4 56.4224 20.4267 56.4224 20.48V25.472C56.4224 25.4933 56.4331 25.504 56.4544 25.504H58.2864C58.3398 25.504 58.3664 25.5307 58.3664 25.584V25.92C58.3664 25.9733 58.3398 26 58.2864 26H55.9344ZM60.0185 26.064C59.6078 26.064 59.2745 25.936 59.0185 25.68C58.7678 25.424 58.6425 25.0853 58.6425 24.664V21.736C58.6425 21.3147 58.7678 20.976 59.0185 20.72C59.2745 20.464 59.6078 20.336 60.0185 20.336C60.4345 20.336 60.7705 20.464 61.0265 20.72C61.2825 20.976 61.4105 21.3147 61.4105 21.736V24.664C61.4105 25.08 61.2825 25.4187 61.0265 25.68C60.7705 25.936 60.4345 26.064 60.0185 26.064ZM60.0185 25.568C60.2638 25.568 60.4612 25.488 60.6105 25.328C60.7652 25.1627 60.8425 24.952 60.8425 24.696V21.712C60.8425 21.4507 60.7652 21.24 60.6105 21.08C60.4612 20.9147 60.2638 20.832 60.0185 20.832C59.7785 20.832 59.5838 20.9147 59.4345 21.08C59.2852 21.24 59.2105 21.4507 59.2105 21.712V24.696C59.2105 24.952 59.2852 25.1627 59.4345 25.328C59.5838 25.488 59.7785 25.568 60.0185 25.568ZM63.4109 26.064C63.0003 26.064 62.6723 25.944 62.4269 25.704C62.1816 25.4587 62.0589 25.1333 62.0589 24.728V21.672C62.0589 21.2667 62.1816 20.944 62.4269 20.704C62.6723 20.4587 63.0003 20.336 63.4109 20.336C63.8216 20.336 64.1496 20.4587 64.3949 20.704C64.6456 20.9493 64.7709 21.2747 64.7709 21.68V22.024C64.7709 22.0773 64.7443 22.104 64.6909 22.104H64.2829C64.2296 22.104 64.2029 22.0773 64.2029 22.024V21.664C64.2029 21.4133 64.1309 21.2133 63.9869 21.064C63.8429 20.9093 63.6509 20.832 63.4109 20.832C63.1763 20.832 62.9843 20.9093 62.8349 21.064C62.6909 21.2187 62.6189 21.4187 62.6189 21.664V24.736C62.6189 24.9813 62.6909 25.1813 62.8349 25.336C62.9843 25.4907 63.1763 25.568 63.4109 25.568C63.6509 25.568 63.8429 25.4933 63.9869 25.344C64.1309 25.1893 64.2029 24.9867 64.2029 24.736V23.712C64.2029 23.6907 64.1923 23.68 64.1709 23.68H63.4829C63.4296 23.68 63.4029 23.6533 63.4029 23.6V23.264C63.4029 23.2107 63.4296 23.184 63.4829 23.184H64.6909C64.7443 23.184 64.7709 23.2107 64.7709 23.264V24.728C64.7709 25.1333 64.6456 25.4587 64.3949 25.704C64.1496 25.944 63.8216 26.064 63.4109 26.064ZM65.6363 26C65.583 26 65.5563 25.9733 65.5563 25.92V20.48C65.5563 20.4267 65.583 20.4 65.6363 20.4H66.0443C66.0976 20.4 66.1243 20.4267 66.1243 20.48V25.92C66.1243 25.9733 66.0976 26 66.0443 26H65.6363ZM69.5711 20.816C69.5711 20.8693 69.5444 20.896 69.4911 20.896H67.6351C67.6137 20.896 67.6031 20.9067 67.6031 20.928V22.912C67.6031 22.9333 67.6137 22.944 67.6351 22.944H68.8031C68.8564 22.944 68.8831 22.9707 68.8831 23.024V23.368C68.8831 23.4213 68.8564 23.448 68.8031 23.448H67.6351C67.6137 23.448 67.6031 23.4587 67.6031 23.48V25.472C67.6031 25.4933 67.6137 25.504 67.6351 25.504H69.4911C69.5444 25.504 69.5711 25.5307 69.5711 25.584V25.92C69.5711 25.9733 69.5444 26 69.4911 26H67.1151C67.0617 26 67.0351 25.9733 67.0351 25.92V20.48C67.0351 20.4267 67.0617 20.4 67.1151 20.4H69.4911C69.5444 20.4 69.5711 20.4267 69.5711 20.48V20.816ZM71.3128 26.064C70.9181 26.064 70.5981 25.9333 70.3528 25.672C70.1074 25.4107 69.9848 25.0693 69.9848 24.648V24.464C69.9848 24.4107 70.0114 24.384 70.0648 24.384H70.4568C70.5101 24.384 70.5368 24.4107 70.5368 24.464V24.624C70.5368 24.9067 70.6088 25.136 70.7528 25.312C70.8968 25.4827 71.0834 25.568 71.3128 25.568C71.5368 25.568 71.7234 25.4853 71.8728 25.32C72.0221 25.1547 72.0968 24.936 72.0968 24.664C72.0968 24.4827 72.0594 24.328 71.9848 24.2C71.9154 24.0667 71.8221 23.952 71.7048 23.856C71.5928 23.7547 71.4034 23.6027 71.1368 23.4C70.8701 23.2027 70.6594 23.0347 70.5048 22.896C70.3501 22.752 70.2221 22.5813 70.1208 22.384C70.0248 22.1867 69.9768 21.9547 69.9768 21.688C69.9768 21.272 70.0968 20.944 70.3368 20.704C70.5768 20.4587 70.8888 20.336 71.2728 20.336C71.6781 20.336 72.0008 20.4693 72.2408 20.736C72.4861 20.9973 72.6088 21.3467 72.6088 21.784V21.984C72.6088 22.0373 72.5821 22.064 72.5288 22.064H72.1288C72.0754 22.064 72.0488 22.0373 72.0488 21.984V21.776C72.0488 21.4933 71.9768 21.2667 71.8328 21.096C71.6941 20.92 71.5074 20.832 71.2728 20.832C71.0594 20.832 70.8834 20.9093 70.7448 21.064C70.6061 21.2133 70.5368 21.4267 70.5368 21.704C70.5368 21.8693 70.5661 22.016 70.6248 22.144C70.6888 22.2667 70.7821 22.384 70.9048 22.496C71.0274 22.608 71.2088 22.7547 71.4488 22.936C71.7688 23.1707 72.0061 23.3627 72.1608 23.512C72.3208 23.656 72.4434 23.816 72.5288 23.992C72.6141 24.1627 72.6568 24.3707 72.6568 24.616C72.6568 25.0533 72.5314 25.4053 72.2808 25.672C72.0301 25.9333 71.7074 26.064 71.3128 26.064Z" fill="#009738"/>
<g clip-path="url(#clip0_2292_8371)">
<path d="M8.66667 0H0V26H8.66667V0Z" fill="#009738"/>
<path opacity="0.75" d="M26 8.66667V0L8.66666 0V8.66667L26 8.66667Z" fill="#009738"/>
<path opacity="0.5" d="M17.3337 8.66675H8.66699V17.3334H17.3337V8.66675Z" fill="#009738"/>
</g>
<defs>
<clipPath id="clip0_2292_8371">
<rect width="26" height="26" fill="white"/>
</clipPath>
</defs>
</svg>
