<svg width="24" height="24" viewBox="0 0 24 24" fill="none" xmlns="http://www.w3.org/2000/svg">
<path d="M15.3853 12.1057C15.0001 12.1057 14.6879 12.4181 14.6879 12.8034C14.6879 13.1887 15.0001 13.5011 15.3853 13.5011H17.9212C18.3064 13.5011 18.6186 13.1887 18.6186 12.8034C18.6186 12.4181 18.3064 12.1057 17.9212 12.1057H15.3853Z" fill="#5E5F60"/>
<path fill-rule="evenodd" clip-rule="evenodd" d="M19.115 3.97904C19.187 4.39203 19.2044 4.88281 19.2092 5.44432C19.2899 5.48641 19.3691 5.53122 19.4469 5.57891C20.1663 6.01995 20.7711 6.62506 21.212 7.34478C21.6974 8.1372 21.8739 9.0556 21.9468 10.2229C21.9999 11.0721 21.9999 12.1049 21.9999 13.3735V13.3998C21.9999 14.1272 21.9999 14.7752 21.9903 15.352C21.9605 17.1454 21.8445 18.4134 21.212 19.4459C20.7711 20.1656 20.1663 20.7708 19.4469 21.2118C18.7599 21.633 17.9806 21.8207 17.0288 21.9112C16.0951 22 14.9263 22 13.4354 22H10.5726C9.08176 22 7.91293 22 6.97921 21.9112C6.02746 21.8207 5.24815 21.633 4.56116 21.2118C3.84174 20.7708 3.23688 20.1656 2.79602 19.4459C2.37503 18.7586 2.1874 17.979 2.09691 17.0269C2.00813 16.0928 2.00813 14.9235 2.00814 13.432L2.00821 12.9429C1.99596 12.4832 1.99972 11.9693 2.00378 11.4152C2.00592 11.1231 2.00814 10.8199 2.00814 10.5076L2.00814 10.4672C2.00813 8.87445 2.00813 7.62439 2.11119 6.63226C2.2163 5.62035 2.43489 4.795 2.92788 4.08731C3.22572 3.65974 3.58708 3.28254 3.99929 2.97018C4.68581 2.44996 5.48918 2.2187 6.46888 2.10799C7.4247 1.99999 8.62714 1.99999 10.1503 2L15.2348 2C15.9773 1.99997 16.6067 1.99994 17.1084 2.0703C17.6444 2.14545 18.1362 2.31262 18.5297 2.72305C18.8713 3.07931 19.0331 3.5091 19.115 3.97904ZM15.1858 3.39535C15.9907 3.39535 16.5213 3.39696 16.9148 3.45214C17.2852 3.50407 17.4293 3.59106 17.5231 3.68896C17.6099 3.77949 17.6882 3.91617 17.741 4.21866C17.7762 4.42092 17.7954 4.66813 17.8056 4.98437C17.4218 4.91409 17.0076 4.87079 16.5564 4.84293C15.7103 4.7907 14.6819 4.7907 13.4203 4.7907H10.5726C9.08173 4.7907 7.91295 4.79069 6.97921 4.87951C6.02746 4.97004 5.24815 5.15774 4.56116 5.57891C4.19082 5.80594 3.85083 6.07646 3.54795 6.38371C3.65001 5.70713 3.81715 5.25121 4.07218 4.8851C4.28752 4.57599 4.54733 4.30534 4.84145 4.08247C5.24847 3.77404 5.77183 3.59098 6.62543 3.49452C7.49387 3.39639 8.61756 3.39535 10.1937 3.39535H15.1858ZM5.28993 6.76864C5.72094 6.5044 6.26158 6.34941 7.11123 6.26859C7.97126 6.18679 9.07384 6.18605 10.6092 6.18605H13.3988C14.6863 6.18605 15.6722 6.18635 16.4705 6.23563C17.2681 6.28487 17.8258 6.38086 18.2654 6.54786C18.43 6.61041 18.579 6.68335 18.7181 6.76864C19.2498 7.09462 19.6969 7.54188 20.0228 8.07385C20.2521 8.44821 20.3982 8.90325 20.4858 9.56873H15.3853C13.5996 9.56873 12.1519 11.0169 12.1519 12.8034C12.1519 14.5899 13.5996 16.0381 15.3853 16.0381H20.5766C20.5229 17.3965 20.3747 18.1423 20.0228 18.7169C19.6969 19.2488 19.2498 19.6961 18.7181 20.0221C18.2871 20.2863 17.7464 20.4413 16.8968 20.5221C16.0368 20.6039 14.9342 20.6047 13.3988 20.6047H10.6092C9.07384 20.6047 7.97126 20.6039 7.11123 20.5221C6.26158 20.4413 5.72094 20.2863 5.28993 20.0221C4.75818 19.6961 4.31111 19.2488 3.98526 18.7169C3.72113 18.2857 3.5662 17.7448 3.48542 16.8948C3.40365 16.0344 3.40291 14.9314 3.40291 13.3954C3.40291 11.8593 3.40365 10.7563 3.48542 9.8959C3.5662 9.0459 3.72113 8.50503 3.98526 8.07385C4.31111 7.54188 4.75818 7.09462 5.28993 6.76864ZM13.5467 12.8034C13.5467 11.7876 14.3699 10.9641 15.3853 10.9641H20.5842C20.6049 11.6375 20.6051 12.432 20.6051 13.3954C20.6051 13.8455 20.6051 14.2595 20.6029 14.6427H15.3853C14.3699 14.6427 13.5467 13.8192 13.5467 12.8034Z" fill="#5E5F60"/>
</svg>
