<svg width="35" height="33" viewBox="0 0 35 33" fill="none" xmlns="http://www.w3.org/2000/svg">
<path d="M28.4274 11.4304C28.4269 11.2658 28.4231 11.102 28.4157 10.939V1.64817L25.8472 4.21671C23.7449 1.64353 20.547 0 16.9649 0C13.2372 0 9.92549 1.77932 7.83203 4.53487L12.0422 8.78931C12.4548 8.02624 13.0409 7.37084 13.7476 6.87584C14.4827 6.30225 15.5241 5.83326 16.9648 5.83326C17.1388 5.83326 17.2732 5.8536 17.3719 5.89191C19.1568 6.0328 20.7041 7.01788 21.6151 8.44766L18.6349 11.4278C22.4097 11.413 26.6739 11.4043 28.4271 11.4297" fill="#1C3AA9"/>
<path d="M16.8972 0.000976562C16.7326 0.00152323 16.5688 0.00532259 16.4058 0.0127026H7.11497L9.68351 2.58124C7.11032 4.68345 5.4668 7.88145 5.4668 11.4635C5.4668 15.1912 7.24614 18.5029 10.0017 20.5964L14.2561 16.3862C13.493 15.9736 12.8376 15.3875 12.3426 14.6808C11.7691 13.9457 11.3001 12.9043 11.3001 11.4636C11.3001 11.2896 11.3204 11.1552 11.3587 11.0565C11.4996 9.27157 12.4847 7.72434 13.9145 6.81332L16.8946 9.79347C16.8798 6.01874 16.8711 1.75446 16.8965 0.00130449" fill="#4285F4"/>
<path d="M5.4668 11.4629C5.46734 11.6275 5.47114 11.7913 5.47852 11.9542V21.2451L8.04706 18.6766C10.1493 21.2498 13.3473 22.8933 16.9293 22.8933C20.657 22.8933 23.9687 21.114 26.0622 18.3584L21.852 14.104C21.4394 14.867 20.8533 15.5224 20.1466 16.0174C19.4116 16.591 18.3701 17.06 16.9294 17.06C16.7554 17.06 16.6211 17.0397 16.5224 17.0014C14.7374 16.8605 13.1902 15.8754 12.2791 14.4456L15.2593 11.4655C11.4846 11.4803 7.22029 11.489 5.46713 11.4636" fill="#ABABAB"/>
<path d="M7.40092 27.3321C7.12171 27.3321 6.87139 27.3851 6.64994 27.491C6.42849 27.5945 6.24076 27.7425 6.08671 27.935C5.93507 28.1276 5.81833 28.3611 5.73648 28.6355C5.65705 28.9074 5.61734 29.2119 5.61734 29.5489V30.5201C5.61734 30.8595 5.65705 31.1652 5.73648 31.4371C5.81832 31.7091 5.93385 31.9414 6.0831 32.134C6.23234 32.3265 6.41285 32.4745 6.62465 32.578C6.83646 32.6816 7.07475 32.7333 7.33953 32.7333C7.61151 32.7333 7.84981 32.6936 8.0544 32.6141C8.2614 32.5347 8.43469 32.4204 8.57431 32.2712C8.71391 32.1195 8.82102 31.9366 8.89564 31.7224C8.97266 31.5081 9.0184 31.2651 9.03284 30.9931H8.36489C8.34804 31.2025 8.31916 31.3818 8.27824 31.531C8.23732 31.6778 8.17715 31.7994 8.09772 31.8957C8.0207 31.9895 7.9196 32.0593 7.79443 32.1051C7.67167 32.1484 7.52003 32.1701 7.33952 32.1701C7.14696 32.1701 6.98328 32.1279 6.8485 32.0437C6.71371 31.957 6.6042 31.8391 6.51996 31.6899C6.43812 31.5406 6.37795 31.3661 6.33943 31.1663C6.30333 30.9666 6.28528 30.7512 6.28528 30.5201V29.5417C6.28528 29.2937 6.30694 29.0687 6.35027 28.8665C6.396 28.6643 6.4646 28.4922 6.55606 28.3502C6.64753 28.2082 6.76306 28.0987 6.90268 28.0216C7.04228 27.9422 7.20837 27.9025 7.40091 27.9025C7.56217 27.9025 7.70056 27.9266 7.8161 27.9747C7.93164 28.0204 8.02791 28.0927 8.10493 28.1913C8.18196 28.2876 8.24093 28.4104 8.28185 28.5596C8.32276 28.7088 8.35044 28.8869 8.36488 29.0939H9.03283C9.0208 28.8099 8.97626 28.5584 8.89924 28.3393C8.82222 28.1203 8.71511 27.9362 8.57791 27.7869C8.44071 27.6377 8.27342 27.5246 8.07607 27.4476C7.88111 27.3705 7.65607 27.332 7.40091 27.332L7.40092 27.3321ZM23.7058 27.3321C23.4266 27.3321 23.1763 27.3851 22.9548 27.491C22.7334 27.5945 22.5456 27.7425 22.3916 27.935C22.2399 28.1276 22.1232 28.3611 22.0414 28.6355C21.9619 28.9074 21.9222 29.2119 21.9222 29.5489V30.5201C21.9222 30.8595 21.9619 31.1652 22.0414 31.4371C22.1232 31.7091 22.2387 31.9414 22.388 32.134C22.5372 32.3265 22.7177 32.4745 22.9295 32.578C23.1413 32.6815 23.3796 32.7333 23.6444 32.7333C23.9164 32.7333 24.1547 32.6936 24.3593 32.6141C24.5663 32.5347 24.7396 32.4204 24.8792 32.2712C25.0188 32.1195 25.1259 31.9366 25.2005 31.7224C25.2775 31.5081 25.3233 31.2651 25.3377 30.9931H24.6698C24.653 31.2025 24.6241 31.3818 24.5831 31.531C24.5422 31.6778 24.4821 31.7994 24.4026 31.8957C24.3256 31.9895 24.2245 32.0593 24.0993 32.1051C23.9766 32.1484 23.8249 32.1701 23.6444 32.1701C23.4519 32.1701 23.2882 32.1279 23.1534 32.0437C23.0186 31.957 22.9091 31.8391 22.8249 31.6899C22.743 31.5406 22.6829 31.3661 22.6443 31.1663C22.6082 30.9666 22.5902 30.7512 22.5902 30.5201V29.5417C22.5902 29.2937 22.6119 29.0687 22.6552 28.8665C22.7009 28.6643 22.7695 28.4922 22.861 28.3502C22.9524 28.2082 23.068 28.0987 23.2076 28.0216C23.3472 27.9422 23.5133 27.9025 23.7058 27.9025C23.8671 27.9025 24.0054 27.9266 24.121 27.9747C24.2365 28.0204 24.3328 28.0927 24.4098 28.1913C24.4868 28.2876 24.5458 28.4104 24.5867 28.5596C24.6276 28.7088 24.6553 28.8869 24.6698 29.0939H25.3377C25.3256 28.8099 25.2811 28.5584 25.2041 28.3393C25.1271 28.1203 25.02 27.9362 24.8828 27.7869C24.7456 27.6377 24.5783 27.5246 24.3809 27.4476C24.186 27.3705 23.9609 27.332 23.7058 27.332L23.7058 27.3321ZM11.2065 27.4043L9.51324 32.6611H10.192L10.6 31.2891H12.3763L12.7915 32.6611H13.4703L11.7734 27.4043H11.2065ZM14.1851 27.4043V32.6611H14.8458V30.6031H15.8603C16.113 30.6031 16.3369 30.5682 16.5318 30.4984C16.7268 30.4262 16.8905 30.3227 17.0229 30.1879C17.1576 30.0531 17.2587 29.887 17.3261 29.6897C17.3959 29.4899 17.4308 29.2636 17.4308 29.0109C17.4308 28.7774 17.3959 28.5632 17.3261 28.3682C17.2587 28.1709 17.1588 28.0012 17.0265 27.8591C16.8941 27.7147 16.7292 27.6028 16.5318 27.5234C16.3369 27.444 16.113 27.4042 15.8603 27.4042L14.1851 27.4043ZM17.9363 27.4043V27.9748H19.3155V32.6611H19.9762V27.9748H21.359V27.4043H17.9363ZM26.2295 27.4043V32.6611H26.8902V30.2312H29.0059V32.6611H29.6702V27.4043H29.0059V29.6644H26.8902V27.4043H26.2295ZM32.1759 27.4043L30.4826 32.6611H31.1613L31.5693 31.2891H33.3456L33.7608 32.6611H34.4396L32.7427 27.4043H32.1759ZM14.8457 27.9748H15.8602C16.0215 27.9748 16.1587 28.0036 16.2718 28.0614C16.3873 28.1192 16.4812 28.1962 16.5534 28.2925C16.628 28.3887 16.6822 28.5007 16.7159 28.6282C16.752 28.7534 16.7701 28.8834 16.7701 29.0182C16.7701 29.1674 16.752 29.3046 16.7159 29.4298C16.6822 29.5525 16.628 29.6596 16.5534 29.7511C16.4812 29.8401 16.3874 29.9099 16.2718 29.9605C16.1587 30.011 16.0215 30.0363 15.8602 30.0363H14.8457V27.9748ZM11.4881 28.3286L12.2066 30.7187H10.7732L11.4881 28.3286ZM32.4574 28.3286L33.1759 30.7187H31.7425L32.4574 28.3286ZM1.35752 28.6824C1.19144 28.6824 1.04821 28.7245 0.927865 28.8088C0.809925 28.893 0.711238 29.0074 0.631818 29.1518L0.620986 28.7546H0V32.6611H0.639053V29.8665C0.699228 29.7004 0.784674 29.5693 0.895394 29.473C1.00852 29.3767 1.15174 29.3286 1.32505 29.3286C1.38041 29.3286 1.42975 29.331 1.47307 29.3358C1.5164 29.3382 1.56333 29.3442 1.61388 29.3538L1.61027 28.7328C1.60064 28.728 1.585 28.7232 1.56333 28.7184C1.54408 28.7111 1.52241 28.7051 1.49834 28.7003C1.47427 28.6955 1.449 28.6919 1.42253 28.6895C1.39845 28.6847 1.37679 28.6823 1.35754 28.6823L1.35752 28.6824ZM3.50573 28.6824C3.32039 28.6824 3.14107 28.7149 2.96778 28.7799C2.79448 28.8449 2.64044 28.952 2.50566 29.1012C2.37327 29.248 2.26616 29.4406 2.18432 29.6789C2.10249 29.9148 2.06157 30.2048 2.06157 30.549V30.9895C2.06157 31.2879 2.09647 31.5467 2.16627 31.7657C2.23607 31.9848 2.33596 32.1665 2.46593 32.3109C2.59831 32.4529 2.75837 32.5588 2.94612 32.6286C3.13386 32.6984 3.34448 32.7334 3.57796 32.7334C3.74645 32.7334 3.89688 32.7165 4.02926 32.6828C4.16405 32.6491 4.28319 32.6058 4.3867 32.5528C4.4902 32.4975 4.57926 32.4349 4.65387 32.3651C4.72848 32.2953 4.79227 32.2231 4.84522 32.1485L4.51307 31.7441C4.46011 31.8091 4.40355 31.8693 4.34338 31.9246C4.2832 31.9776 4.21701 32.0245 4.1448 32.0654C4.07259 32.1039 3.99316 32.134 3.90651 32.1557C3.81986 32.1773 3.72238 32.1882 3.61407 32.1882C3.31803 32.1882 3.09056 32.0931 2.9317 31.9029C2.77524 31.7128 2.69702 31.4083 2.69702 30.9895V30.8992H4.87773V30.5274C4.87773 30.2289 4.85245 29.9653 4.80191 29.7367C4.75136 29.508 4.67073 29.3155 4.56001 29.159C4.44929 29.0025 4.30727 28.8846 4.13396 28.8052C3.96066 28.7233 3.75127 28.6824 3.50573 28.6824L3.50573 28.6824ZM3.50573 29.2312C3.64533 29.2312 3.76086 29.2565 3.85234 29.307C3.9438 29.3576 4.01601 29.4286 4.06897 29.52C4.12433 29.6115 4.16404 29.721 4.18811 29.8486C4.21459 29.9737 4.23144 30.1121 4.23866 30.2638V30.3504H2.70061C2.71024 30.1314 2.73671 29.9497 2.78004 29.8052C2.82337 29.6608 2.87993 29.5465 2.94973 29.4623C3.02194 29.3756 3.10498 29.3154 3.19885 29.2817C3.29272 29.248 3.39502 29.2312 3.50575 29.2312L3.50573 29.2312Z" fill="#A6A6A6"/>
</svg>
