<svg width="30" height="24" viewBox="0 0 30 24" fill="none" xmlns="http://www.w3.org/2000/svg">
<path d="M5.2998 4.4502C7.09195 4.4502 8.54959 5.91434 8.5498 7.71387C8.5498 8.74609 8.06804 9.66371 7.32129 10.2617C7.37837 10.2855 7.43852 10.3098 7.49414 10.3389C7.77479 10.4853 7.88596 10.8284 7.74902 11.1123V11.1172L7.74316 11.1289C7.59491 11.4158 7.24154 11.5267 6.95703 11.3789C6.45436 11.1171 5.88082 10.9785 5.2998 10.9785C3.26992 10.9786 1.61621 12.6381 1.61621 14.6787V16.8213C1.61621 17.68 2.31258 18.3789 3.16699 18.3789H5.86523C6.18737 18.3789 6.44899 18.6409 6.44922 18.9639C6.44922 19.287 6.18752 19.5498 5.86523 19.5498H3.16699C1.66915 19.5498 0.450195 18.3253 0.450195 16.8213V14.6787C0.450195 12.7192 1.6087 11.0305 3.27246 10.2578C2.53009 9.65997 2.0498 8.74356 2.0498 7.71387C2.05002 5.9144 3.50774 4.45029 5.2998 4.4502ZM5.2998 5.62012C4.15106 5.62014 3.21694 6.55852 3.2168 7.71289C3.2168 8.86738 4.15098 9.80564 5.2998 9.80566C6.44865 9.80566 7.38281 8.86739 7.38281 7.71289C7.38267 6.55851 6.44856 5.62012 5.2998 5.62012Z" fill="#5E5F60" stroke="#5E5F60" stroke-width="0.1"/>
<path d="M15 2.4502C17.3049 2.4502 19.1865 4.2246 19.1865 6.41211C19.1864 7.72967 18.5001 8.89427 17.4531 9.61426C19.8498 10.5345 21.5496 12.7555 21.5498 15.3525V18.7061C21.5497 20.2763 20.1993 21.5496 18.5459 21.5498H11.4541C9.80071 21.5496 8.45029 20.2763 8.4502 18.7061V15.3525C8.45037 12.7559 10.1497 10.5347 12.5459 9.61426C11.4993 8.89426 10.8136 7.7294 10.8135 6.41211C10.8135 4.22461 12.6951 2.45021 15 2.4502ZM15 10.373C12.0927 10.3731 9.73168 12.6098 9.73145 15.3525V18.7061C9.73154 19.6002 10.5026 20.332 11.4551 20.332H18.5459C19.4982 20.3318 20.2685 19.6 20.2686 18.7061V15.3525C20.2683 12.6098 17.9073 10.373 15 10.373ZM15 3.66797C13.3963 3.668 12.0957 4.90207 12.0957 6.41211C12.0959 7.92199 13.3964 9.15622 15 9.15625C16.6036 9.15625 17.9041 7.92201 17.9043 6.41211C17.9043 4.90205 16.6038 3.66797 15 3.66797Z" fill="#5E5F60" stroke="#5E5F60" stroke-width="0.1"/>
<path d="M24.7002 4.4502C26.4924 4.4503 27.9502 5.91506 27.9502 7.71484C27.9501 8.74332 27.4707 9.65894 26.7275 10.2578C28.391 11.0308 29.5496 12.7185 29.5498 14.6777V16.8213C29.5498 18.3253 28.3308 19.5498 26.833 19.5498H24.1348C23.8125 19.5498 23.5508 19.2871 23.5508 18.9639C23.551 18.6409 23.8126 18.3789 24.1348 18.3789H26.833C27.6874 18.3789 28.3838 17.6801 28.3838 16.8213V14.6777C28.3835 12.6372 26.7299 10.9776 24.7002 10.9775C24.1192 10.9775 23.5457 11.1171 23.043 11.3789C22.7584 11.5277 22.405 11.4159 22.2568 11.1279C22.1089 10.8413 22.2203 10.4878 22.5059 10.3389C22.5605 10.3103 22.6209 10.2855 22.6777 10.2617C21.9325 9.66373 21.4503 8.74669 21.4502 7.71484C21.4502 5.91499 22.9079 4.4502 24.7002 4.4502ZM24.7002 5.62109C23.5514 5.62109 22.6162 6.56024 22.6162 7.71484C22.6164 8.8693 23.5515 9.80762 24.7002 9.80762C25.8488 9.80748 26.783 8.86922 26.7832 7.71484C26.7832 6.56032 25.8489 5.62123 24.7002 5.62109Z" fill="#5E5F60" stroke="#5E5F60" stroke-width="0.1"/>
</svg>
